# xmcd
#
# Track frame offsets:
#	150
#	15397
#	28155
#	41720
#	53275
#	66860
#	79070
#	93677
#	103277
#	114475
#	129487
#	142600
#
# Disc length: 2068 seconds
#
# Revision: 0
# Processed by: cddbd v1.5.2PL0 Copyright (c) Steve Scherf et al.
# Submitted via: audiograbber 1.83.01
#
DISCID=9708120c
DTITLE=Doyle Lawson and Quicksilver - Treasures Money Can't Buy
DYEAR=1992
DGENRE=Bluegrass
TTITLE0=You've Been An Inspiration To Me
TTITLE1=Treasures Money Can't Buy
TTITLE2=Journey To The Son
TTITLE3=No Other Fountain
TTITLE4=He Must Have Loved Me A Lot
TTITLE5=Buckle Of The Bible Belt
TTITLE6=Angel Unaware
TTITLE7=It's Alright
TTITLE8=Praising The Risen Lamb
TTITLE9=He Satisfies
TTITLE10=Just A Little Talk With Jesus
TTITLE11=Somewhere In Heaven
EXTD=
EXTT0=
EXTT1=
EXTT2=
EXTT3=
EXTT4=
EXTT5=
EXTT6=
EXTT7=
EXTT8=
EXTT9=
EXTT10=
EXTT11=
PLAYORDER=
